<svg width="168" height="168" viewBox="0 0 168 168" fill="none" xmlns="http://www.w3.org/2000/svg">
<path d="M83.829 0.348877C37.532 0.348877 0 37.8809 0 84.1779C0 125.701 30.222 160.089 69.848 166.748V101.667H49.626V78.2469H69.848V60.9779C69.848 40.9409 82.086 30.0219 99.963 30.0219C108.525 30.0219 115.883 30.6599 118.019 30.9409V51.8849L105.62 51.8909C95.9 51.8909 94.026 56.5089 94.026 63.2879V78.2349H117.219L114.194 101.655H94.026V167.308C135.502 162.26 167.657 126.996 167.657 84.1539C167.657 37.8809 130.125 0.348877 83.829 0.348877Z" fill="white"/>
</svg>
