<svg width="1017" height="954" viewBox="0 0 1017 954" fill="none" xmlns="http://www.w3.org/2000/svg">
<path d="M1080.91 330.161C1080.91 330.161 968.411 86.7798 717.911 23.8989C467.411 -38.9821 290.411 112.98 182.411 103.589C74.4105 94.1985 0.910532 41.0894 0.910532 41.0894L0.910532 953.089L1080.91 953.089L1080.91 330.161Z" fill="#226799" fill-opacity="0.32"/>
<path d="M1080.91 118.538C1080.91 118.538 1057.41 47.4563 888.911 7.08936C720.411 -33.2776 325.461 136.18 215.911 127.089C106.36 117.998 0.910532 66.0894 0.910532 66.0894L0.910532 953.089L1080.91 953.089L1080.91 118.538Z" fill="#226799" fill-opacity="0.35"/>
<path d="M0.910513 953.137L0.910529 93.4486C447.411 276.637 673.911 -158.863 1080.41 112.089C1080.41 115.126 1080.41 953.137 1080.41 953.137L0.910513 953.137Z" fill="#0F1159"/>
</svg>
