<svg width="953" height="1080" viewBox="0 0 953 1080" fill="none" xmlns="http://www.w3.org/2000/svg">
<path d="M330.071 0C330.071 0 86.6904 112.5 23.8095 363C-39.0714 613.5 112.891 790.5 103.5 898.5C94.1092 1006.5 41 1080 41 1080H953V0H330.071Z" fill="#226799" fill-opacity="0.32"/>
<path d="M118.449 0C118.449 0 47.3669 23.5 7 192C-33.3669 360.5 136.091 755.449 127 865C117.909 974.551 66 1080 66 1080H953V0H118.449Z" fill="#226799" fill-opacity="0.35"/>
<path d="M953.048 1080L93.3591 1080C276.548 633.5 -158.952 407 112 0.499756C115.037 0.499816 953.048 0.499756 953.048 0.499756V1080Z" fill="#0F1159"/>
</svg>
