<svg width="98" height="98" viewBox="0 0 98 98" fill="none" xmlns="http://www.w3.org/2000/svg">
<g clip-path="url(#clip0)">
<path d="M48.875 0C21.882 0 0 21.882 0 48.875C0 75.868 21.882 97.75 48.875 97.75C75.868 97.75 97.75 75.868 97.75 48.875C97.75 21.882 75.868 0 48.875 0ZM30.562 81.966H16.822V37.758H30.562V81.966V81.966ZM23.695 31.715C19.291 31.715 15.726 28.145 15.726 23.747C15.727 19.353 19.291 15.783 23.695 15.783C28.087 15.783 31.657 19.353 31.657 23.747C31.657 28.146 28.086 31.715 23.695 31.715ZM82.023 81.966H68.294V60.467C68.294 55.34 68.199 48.746 61.152 48.746C54.006 48.746 52.907 54.33 52.907 60.096V81.965H39.179V37.758H52.357V43.799H52.542C54.377 40.323 58.857 36.659 65.542 36.659C79.455 36.659 82.023 45.815 82.023 57.718V81.966Z" fill="white"/>
</g>
<defs>
<clipPath id="clip0">
<rect width="97.75" height="97.75" fill="white"/>
</clipPath>
</defs>
</svg>
